# xmcd
#
# Track frame offsets:
#  150
#  14640
#  25310
#  40235
#  51032
#  71132
#  87332
#  106302
#  127835
#  139054
#  161351
#  173441
#  186566
#  205191
#  206136
#
# Disc length: 2983 seconds
#
# Revision: 0
# Processed by: cddbd v1.5.1PL2 Copyright (c) Steve Scherf et al.
# Submitted via: Collectorz.com_Music_Collector 6.11
#
DISCID=d20ba50f
DTITLE=Kid Andersen - Greaseland
DYEAR=2006
DGENRE=Blues
TTITLE0=It's Dark In Here
TTITLE1=C'mon Johnny. Let's Hit That Town
TTITLE2=I'm Tired
TTITLE3=Jennifer, Jennifer
TTITLE4=Devil Got My Woman
TTITLE5=The Dirt People
TTITLE6=Brandy!
TTITLE7=Strange Land
TTITLE8=Slimy Town
TTITLE9=The Bender
TTITLE10=Mexico Kid!
TTITLE11=Greaseland Boogie
TTITLE12=Jumping At Shadows
TTITLE13=Bonus Track For Everybody:
TTITLE14=Whiskey!
EXTD=
EXTT0=
EXTT1=
EXTT2=
EXTT3=
EXTT4=
EXTT5=
EXTT6=
EXTT7=
EXTT8=
EXTT9=
EXTT10=
EXTT11=
EXTT12=
EXTT13=
EXTT14=
PLAYORDER=
